<?xml version="1.0" encoding="UTF-8"?>
<svg id="Layer_2" data-name="Layer 2" xmlns="http://www.w3.org/2000/svg" viewBox="0 0 60.43 80.11">
  <defs>
    <style>
      .cls-1 {
        fill: none;
      }

      .cls-2 {
        fill: #fff;
      }

      .cls-3 {
        fill: #1f99ff;
      }

      .cls-4 {
        fill: #105284;
      }
    </style>
  </defs>
  <g id="Layer_1-2" data-name="Layer 1">
    <path class="cls-2" d="m31.45,6.59c-12.35,0-20.61,7.97-21.76,18.66-.01.12-.03.25-.04.37-.06.73-.1,1.46-.1,2.21s.04,1.48.1,2.21c.01.13.03.25.04.37,1.15,10.69,9.41,18.66,21.76,18.66,13.33,0,21.91-9.27,21.91-21.24S44.78,6.59,31.45,6.59Zm2.26,32.85c-7.95,0-14.42-5.98-14.42-13.34s6.47-13.32,14.42-13.32,14.41,5.97,14.41,13.32-6.47,13.34-14.41,13.34Z"/>
    <path class="cls-2" d="m53.36,27.83c0,11.97-8.58,21.24-21.91,21.24-12.35,0-20.61-7.97-21.76-18.66-.01-.12-.03-.24-.04-.37-.06-.73-.1-1.46-.1-2.21s.04-1.48.1-2.21c.01-.12.03-.25.04-.37,1.15-10.69,9.41-18.66,21.76-18.66,13.33,0,21.91,9.28,21.91,21.24Z"/>
    <path class="cls-2" d="m33.71,23.89c0-2.65,2.16-4.83,4.95-5.11-1.32-.82-2.96-1.3-4.84-1.3-5.21,0-8.56,3.62-8.56,8.3s3.35,8.3,8.56,8.3c4.2,0,7.19-2.36,8.19-5.73-.81.43-1.75.67-2.74.67-3.07,0-5.56-2.3-5.56-5.14h0Z"/>
    <path class="cls-4" d="m30.34,0c-8.32,0-15.3,3.39-20.55,9.05h-.25V1.36H0v78.75h9.54v-35.19h.25c3.54,6,11.74,10.75,22.02,10.75,16.03,0,28.62-12,28.62-27.84S48.32,0,30.34,0ZM9.69,30.41c-.01-.12-.03-.24-.04-.37-.07-.72-.11-1.46-.11-2.21s.04-1.49.11-2.21c.01-.12.03-.25.04-.37,1.15-10.69,9.41-18.66,21.76-18.66,13.33,0,21.91,9.28,21.91,21.24s-8.58,21.24-21.91,21.24c-12.35,0-20.61-7.97-21.76-18.66Z"/>
    <path class="cls-3" d="m33.71,12.78c-7.95,0-14.42,5.97-14.42,13.32s6.47,13.34,14.42,13.34,14.41-5.98,14.41-13.34-6.47-13.32-14.41-13.32Zm.11,21.3c-5.21,0-8.56-3.62-8.56-8.3s3.35-8.29,8.56-8.29c1.17,0,2.25.18,3.21.52.58.21,1.12.47,1.61.77,0,.01.01.01.01.01-.52.05-1.02.17-1.49.34-2.02.77-3.45,2.61-3.45,4.76,0,2.84,2.49,5.14,5.55,5.14,1,0,1.94-.24,2.75-.67-1,3.36-4,5.72-8.19,5.72Z"/>
    <path class="cls-4" d="m9.65,25.62c-.07.72-.11,1.46-.11,2.21s.04,1.49.11,2.21c-.06-.73-.1-1.46-.1-2.21s.04-1.48.1-2.21Z"/>
    <path class="cls-1" d="m53.36,27.83c0,11.97-8.58,21.24-21.91,21.24-12.35,0-20.61-7.97-21.76-18.66-.01-.12-.03-.24-.04-.37-.06-.73-.1-1.46-.1-2.21s.04-1.48.1-2.21c.01-.12.03-.25.04-.37,1.15-10.69,9.41-18.66,21.76-18.66,13.33,0,21.91,9.28,21.91,21.24Z"/>
  </g>
</svg>