<?xml version="1.0" encoding="UTF-8"?><svg id="Layer_2" xmlns="http://www.w3.org/2000/svg" xmlns:xlink="http://www.w3.org/1999/xlink" viewBox="0 0 89.29 105.2"><defs><style>.cls-1{fill:#fff;}.cls-2{fill:#0f5285;}.cls-3{clip-path:url(#clippath);}.cls-4{fill:none;}.cls-5{fill:#1f99ff;}</style><clipPath id="clippath"><rect class="cls-4" x="21.21" width="46.86" height="62.12"/></clipPath></defs><g id="Layer_2-2"><path class="cls-2" d="m2.96,82.92h.03c.46-.71,1.33-1.05,2.17-1.05,2.14,0,3.63,1.79,3.63,3.85s-1.47,3.81-3.6,3.81c-.83,0-1.68-.29-2.23-.92v4.27H.42v-10.77h2.55v.81Zm-.08,2.79c0,.91.6,1.61,1.64,1.61s1.64-.7,1.64-1.61-.6-1.62-1.64-1.62-1.64.74-1.64,1.62Z"/><path class="cls-2" d="m17.87,89.3h-2.55v-.8h-.03c-.45.71-1.33,1.04-2.17,1.04-2.13,0-3.63-1.78-3.63-3.84s1.47-3.82,3.6-3.82c.83,0,1.7.31,2.23.94v-.7h2.55v7.19Zm-5.74-3.59c0,.91.6,1.61,1.64,1.61s1.64-.7,1.64-1.61-.6-1.62-1.64-1.62-1.64.74-1.64,1.62Z"/><path class="cls-2" d="m21.96,83.29h.03c.49-.88,1.33-1.27,2.33-1.27h.49v2.45c-.35-.2-.69-.24-1.08-.24-1.41,0-1.76.94-1.76,2.17v2.9h-2.55v-7.19h2.55v1.18Z"/><path class="cls-2" d="m28.28,79.35c0,.78-.64,1.43-1.43,1.43s-1.43-.64-1.43-1.43.64-1.43,1.43-1.43,1.43.64,1.43,1.43Zm-.15,9.95h-2.55v-7.19h2.55v7.19Z"/><path class="cls-2" d="m34.3,83.96c-.39-.21-.94-.35-1.37-.35-.29,0-.8.13-.8.49,0,.49.8.56,1.15.63,1.19.24,2.09.8,2.09,2.13,0,1.89-1.72,2.68-3.39,2.68-1.02,0-2.03-.29-2.9-.83l.92-1.78c.52.36,1.39.73,2.02.73.32,0,.8-.15.8-.55,0-.56-.8-.59-1.6-.8-.8-.21-1.6-.6-1.6-1.89,0-1.76,1.6-2.55,3.17-2.55.81,0,1.62.13,2.37.46l-.85,1.62Z"/><path class="cls-2" d="m45.11,86l1.81-3.89h1.51l1.81,3.89,1.81-3.89h2.82l-3.75,7.19h-1.65l-1.78-3.94-1.78,3.94h-1.65l-3.75-7.19h2.83l1.79,3.89Z"/><path class="cls-2" d="m58.19,79.35c0,.78-.64,1.43-1.43,1.43s-1.43-.64-1.43-1.43.64-1.43,1.43-1.43,1.43.64,1.43,1.43Zm-.15,9.95h-2.55v-7.19h2.55v7.19Z"/><path class="cls-2" d="m62.1,89.3h-2.55v-11.63h2.55v11.63Z"/><path class="cls-2" d="m66.17,84.7l2.65-2.59h3.49l-3.6,3.32,3.82,3.87h-3.57l-2.79-2.93v2.93h-2.55v-11.63h2.55v7.03Z"/><path class="cls-2" d="m80.12,86.13h-5.37c0,1.04.55,1.6,1.6,1.6.55,0,.94-.18,1.22-.66h2.45c-.2.84-.7,1.46-1.36,1.86s-1.47.6-2.3.6c-2.38,0-4.16-1.34-4.16-3.82s1.64-3.84,3.98-3.84c2.49,0,3.94,1.54,3.94,3.99v.27Zm-2.37-1.47c-.13-.69-.76-1.13-1.44-1.13-.74,0-1.36.39-1.51,1.13h2.96Z"/><path class="cls-2" d="m83.77,83.04h.03c.59-.87,1.3-1.16,2.3-1.16,1.93,0,2.7,1.22,2.7,2.98v4.44h-2.55v-3.5c0-.69.11-1.89-1.15-1.89-1.04,0-1.33.77-1.33,1.67v3.73h-2.55v-7.19h2.55v.92Z"/><path class="cls-5" d="m5.16,102.04c0,.83,0,1.54-.53,2.22-.48.62-1.23.91-2,.91-1.44,0-2.51-.91-2.54-2.38h.88c.01.96.7,1.56,1.65,1.56,1.36,0,1.66-1,1.66-2.17v-.62h-.02c-.42.54-1.1.86-1.79.86-1.51,0-2.46-1.26-2.46-2.71s.97-2.75,2.5-2.75c.71,0,1.34.32,1.76.88h.02v-.74h.88v4.92Zm-4.26-2.39c0,1.01.59,1.97,1.69,1.97s1.73-.91,1.73-1.96-.65-1.87-1.74-1.87c-1.02,0-1.68.89-1.68,1.86Z"/><path class="cls-5" d="m9.16,97.69h.02c.31-.41.57-.71,1.14-.71.3,0,.54.1.79.24l-.42.8c-.18-.12-.3-.23-.53-.23-.97,0-1.01,1.24-1.01,1.91v2.59h-.88v-5.17h.88v.56Z"/><path class="cls-5" d="m18.18,102.3h-.88v-.71h-.02c-.45.57-1.06.86-1.78.86-1.52,0-2.48-1.29-2.48-2.72s.93-2.74,2.49-2.74c.7,0,1.34.33,1.77.88h.02v-.74h.88v5.17Zm-4.26-2.64c0,1.01.59,1.97,1.69,1.97s1.73-.91,1.73-1.96-.65-1.87-1.74-1.87c-1.02,0-1.68.89-1.68,1.86Z"/><path class="cls-5" d="m22.1,97.86h.02c.43-.57,1.07-.88,1.78-.88,1.52,0,2.47,1.31,2.47,2.74s-.93,2.72-2.49,2.72c-.7,0-1.35-.31-1.77-.87h-.02v3.63h-.88v-8.08h.88v.74Zm-.04,1.79c0,1.01.59,1.97,1.69,1.97s1.73-.91,1.73-1.96-.65-1.87-1.74-1.87c-1.02,0-1.68.89-1.68,1.86Z"/><path class="cls-5" d="m29.94,93.22v4.51l.02.02c.36-.5.84-.77,1.47-.77,1.43,0,1.76,1.04,1.76,2.25v3.07h-.88v-2.92c0-.84-.07-1.58-1.09-1.58-1.21,0-1.29,1.12-1.29,2.05v2.45h-.88v-9.08h.88Z"/><path class="cls-5" d="m37.55,95.18c0,.35-.29.63-.63.63s-.63-.28-.63-.63.29-.63.63-.63.63.29.63.63Zm-.19,7.12h-.88v-5.17h.88v5.17Z"/><path class="cls-5" d="m44.5,98.67h-.02c-.41-.52-.91-.87-1.61-.87-1.07,0-1.83.88-1.83,1.91s.7,1.92,1.78,1.92c.74,0,1.25-.33,1.68-.89h.02v1.18c-.51.34-1.02.53-1.64.53-1.56,0-2.75-1.17-2.75-2.73s1.24-2.73,2.76-2.73c.56,0,1.13.19,1.59.52v1.17Z"/><path class="cls-5" d="m56.02,101.58h-.02c-.43.56-1.08.86-1.78.86-1.52,0-2.48-1.29-2.48-2.72s.93-2.74,2.49-2.74c.69,0,1.35.33,1.77.88h.02v-4.64h.88v9.08h-.88v-.71Zm-3.38-1.93c0,1.01.59,1.97,1.69,1.97s1.73-.91,1.73-1.96-.65-1.87-1.74-1.87c-1.02,0-1.68.89-1.68,1.86Z"/><path class="cls-5" d="m60.42,99.9c.01.96.69,1.73,1.69,1.73.75,0,1.23-.45,1.57-1.07l.75.43c-.5.92-1.33,1.45-2.39,1.45-1.54,0-2.53-1.18-2.53-2.66s.89-2.79,2.51-2.79,2.54,1.38,2.45,2.92h-4.06Zm3.14-.75c-.12-.75-.75-1.35-1.52-1.35s-1.46.61-1.57,1.35h3.09Z"/><path class="cls-5" d="m69.24,98.33c-.12-.27-.38-.53-.7-.53s-.64.24-.64.57c0,.47.59.65,1.2.9.61.25,1.2.62,1.2,1.49,0,.98-.79,1.68-1.75,1.68-.87,0-1.55-.49-1.83-1.31l.78-.33c.22.48.47.83,1.06.83.47,0,.84-.32.84-.79,0-1.16-2.33-.76-2.33-2.39,0-.87.7-1.46,1.54-1.46.59,0,1.14.42,1.38.96l-.74.38Z"/><path class="cls-5" d="m74.22,95.18c0,.35-.29.63-.63.63s-.63-.28-.63-.63.29-.63.63-.63.63.29.63.63Zm-.19,7.12h-.88v-5.17h.88v5.17Z"/><path class="cls-5" d="m81.98,102.04c0,.83,0,1.54-.53,2.22-.48.62-1.23.91-2,.91-1.44,0-2.51-.91-2.54-2.38h.88c.01.96.7,1.56,1.65,1.56,1.36,0,1.66-1,1.66-2.17v-.62h-.02c-.42.54-1.1.86-1.79.86-1.51,0-2.46-1.26-2.46-2.71s.97-2.75,2.5-2.75c.72,0,1.34.32,1.76.88h.02v-.74h.88v4.92Zm-4.26-2.39c0,1.01.59,1.97,1.69,1.97s1.73-.91,1.73-1.96-.65-1.87-1.74-1.87c-1.02,0-1.68.89-1.68,1.86Z"/><path class="cls-5" d="m86.03,97.75h.02c.36-.5.84-.77,1.47-.77,1.43,0,1.76,1.04,1.76,2.25v3.07h-.88v-2.92c0-.84-.07-1.58-1.09-1.58-1.21,0-1.29,1.12-1.29,2.05v2.45h-.88v-5.17h.88v.63Z"/><g class="cls-3"><path class="cls-1" d="m45.6,5.11c-9.57,0-15.99,6.18-16.87,14.47,0,.1-.02.19-.03.29-.05.56-.08,1.13-.08,1.71s.03,1.15.08,1.72c.01.09.02.19.03.29.89,8.29,7.3,14.46,16.87,14.46,10.33,0,16.98-7.19,16.98-16.46s-6.65-16.47-16.98-16.47m1.75,25.47c-6.16,0-11.17-4.64-11.17-10.34s5.01-10.33,11.17-10.33,11.18,4.63,11.18,10.33-5.01,10.34-11.18,10.34"/><path class="cls-1" d="m45.61,38.87c10.28,0,18.62-8.34,18.62-18.62S55.89,1.62,45.61,1.62s-18.62,8.34-18.62,18.62,8.34,18.62,18.62,18.62"/><path class="cls-1" d="m47.35,18.53c0-2.05,1.68-3.74,3.84-3.96-1.03-.64-2.3-1-3.75-1-4.04,0-6.64,2.81-6.64,6.43s2.6,6.43,6.64,6.43c3.25,0,5.58-1.83,6.35-4.44-.63.33-1.35.52-2.13.52-2.38,0-4.31-1.79-4.31-3.98"/><path class="cls-2" d="m44.74,0C38.29,0,32.88,2.63,28.8,7.02h-.19V1.05h-7.4v61.06h7.4v-27.29h.19c2.75,4.65,9.1,8.34,17.07,8.34,12.43,0,22.19-9.3,22.19-21.58S58.68,0,44.74,0m.86,38.04c-9.57,0-15.98-6.17-16.87-14.46,0-.1-.02-.19-.03-.29-.06-.56-.08-1.13-.08-1.71s.03-1.15.08-1.71c0-.1.02-.19.03-.29.89-8.29,7.3-14.46,16.87-14.46,10.33,0,16.98,7.19,16.98,16.47s-6.65,16.46-16.98,16.46"/><path class="cls-5" d="m47.35,9.91c-6.16,0-11.17,4.63-11.17,10.33s5.01,10.34,11.17,10.34,11.18-4.64,11.18-10.34-5.01-10.33-11.18-10.33m.09,16.52c-4.04,0-6.64-2.81-6.64-6.43s2.6-6.43,6.64-6.43c1.45,0,2.72.37,3.75,1-2.16.22-3.84,1.91-3.84,3.96,0,2.2,1.93,3.98,4.31,3.98.77,0,1.5-.19,2.13-.52-.77,2.61-3.1,4.44-6.35,4.44"/></g></g></svg>